<svg xmlns="http://www.w3.org/2000/svg" viewBox="0 0 21 21"><defs><style>.cls-1{fill:#fff;}</style></defs><g id="Layer_2" data-name="Layer 2"><g id="Layer_1-2" data-name="Layer 1"><circle class="cls-1" cx="10.5" cy="10.5" r="10.5"/><polygon points="10.98 9.18 11.97 8.19 11.97 3.56 9.31 3.56 6.65 6.21 9.31 6.21 9.31 9.18 6.46 9.18 6.46 6.21 3.8 6.21 3.8 14.58 6.46 14.58 6.46 11.84 8.32 11.84 10.98 9.18"/><polygon points="14.54 5.93 14.54 8.66 12.68 8.66 10.02 11.32 9.03 12.31 9.03 16.95 11.69 16.95 14.35 14.29 11.69 14.29 11.69 11.32 14.54 11.32 14.54 14.29 17.2 14.29 17.2 5.93 14.54 5.93"/></g></g></svg>