<svg xmlns="http://www.w3.org/2000/svg" viewBox="0 0 43.68 43.68"><defs><style>.cls-1{fill:#fff;}</style></defs><g id="Layer_2" data-name="Layer 2"><g id="Layer_1-2" data-name="Layer 1"><path class="cls-1" d="M21.84,43.68A21.84,21.84,0,1,1,43.68,21.84,21.87,21.87,0,0,1,21.84,43.68ZM21.84,5A16.84,16.84,0,1,0,38.68,21.84,16.85,16.85,0,0,0,21.84,5Z"/><path class="cls-1" d="M19,12.18a2.57,2.57,0,0,1,.82-2,2.74,2.74,0,0,1,2-.79,2.78,2.78,0,0,1,2,.79,2.67,2.67,0,0,1,0,3.89,2.82,2.82,0,0,1-2,.78,2.77,2.77,0,0,1-2-.78A2.57,2.57,0,0,1,19,12.18Zm.62,22.07V18.06h4.42V34.25Z"/></g></g></svg>