<svg xmlns="http://www.w3.org/2000/svg" viewBox="0 0 21 21"><defs><style>.cls-1{fill:#fff;}</style></defs><g id="Layer_2" data-name="Layer 2"><g id="Layer_1-2" data-name="Layer 1"><circle class="cls-1" cx="10.5" cy="10.5" r="10.5"/><path d="M8.9,10.9c0-.64.52-1.38,1.55-2.22a5.77,5.77,0,0,0,.93-.9A1.22,1.22,0,0,0,11.62,7a1.12,1.12,0,0,0-.36-.87,1.23,1.23,0,0,0-.88-.33c-.73,0-1.27.49-1.64,1.49L6.58,6.38A4.09,4.09,0,0,1,8,4.15a4,4,0,0,1,2.45-.76,4.08,4.08,0,0,1,2.77,1,3.13,3.13,0,0,1,1.11,2.48A2.88,2.88,0,0,1,14,8.29,5.91,5.91,0,0,1,12.7,9.7a10.72,10.72,0,0,0-1.13,1.07,1,1,0,0,0-.25.66,3.35,3.35,0,0,0,0,.42H9.12A2.3,2.3,0,0,1,8.9,10.9ZM8.47,15A1.73,1.73,0,0,1,9,13.72a1.76,1.76,0,0,1,1.32-.53,1.75,1.75,0,0,1,1.31.53A1.85,1.85,0,0,1,9,16.32,1.71,1.71,0,0,1,8.47,15Z"/></g></g></svg>