<svg xmlns="http://www.w3.org/2000/svg" width="33.682" height="39" viewBox="0 0 33.682 39"><defs><style>.a{fill:#fff;}</style></defs><g transform="translate(-540 -915.098)"><g transform="translate(540 915.098)"><path class="a" d="M572,932.825a2.216,2.216,0,0,1,1.671,2.323l-1.393,11c-.54,4.517-4.941,7.951-10.191,7.951H554.3a7.09,7.09,0,0,1-4.809-1.881L540,943.462a4.382,4.382,0,0,1,6.342-3.92l4.294,2.148V918.643a3.545,3.545,0,0,1,7.091,0V929.28Zm-9.837,17.727a7.091,7.091,0,0,0,7.091-7.091,1.773,1.773,0,1,0-3.545,0,3.546,3.546,0,0,1-3.545,3.545,1.773,1.773,0,0,0,0,3.545Z" transform="translate(-540 -915.098)"/></g></g></svg>