<svg xmlns="http://www.w3.org/2000/svg" width="33.455" height="33.456" viewBox="0 0 33.455 33.456"><defs><style>.a,.b{fill:#fff;}.a{isolation:isolate;}</style></defs><g transform="translate(216.728 -837.628)"><path class="a" d="M-202.828,854.356l-4.243,4.242a2,2,0,0,0,0,2.829,2,2,0,0,0,2.828,0l4.243-4.243,1.414,1.414a4,4,0,0,1,0,5.657l-5.657,5.657a4,4,0,0,1-5.656,0l-5.657-5.657a4,4,0,0,1,0-5.657l5.657-5.657a4,4,0,0,1,5.656,0Z"/><path class="b" d="M-197.172,854.356l4.243-4.243a2,2,0,0,0,0-2.828,2,2,0,0,0-2.828,0L-200,851.527l-1.414-1.414a4,4,0,0,1,0-5.657l5.657-5.657a4,4,0,0,1,5.656,0l5.657,5.657a4,4,0,0,1,0,5.657l-5.657,5.657a4,4,0,0,1-5.656,0Z"/></g></svg>